{
  "accessors": [
    {
      "bufferView": 1,
      "componentType": 5126,
      "count": 65532,
      "max": [
        40.294879913330078,
        3.7255969047546387,
        73.383392333984375
      ],
      "min": [
        -96.228668212890625,
        -42.921466827392578,
        -77.003013610839844
      ],
      "type": "VEC3"
    },
    {
      "bufferView": 1,
      "byteOffset": 786384,
      "componentType": 5126,
      "count": 65532,
      "max": [
        0.9999922513961792,
        0.99999982118606567,
        0.99998050928115845
      ],
      "min": [
        -0.99998581409454346,
        -0.9999961256980896,
        -0.99998575448989868
      ],
      "type": "VEC3"
    },
    {
      "bufferView": 0,
      "componentType": 5125,
      "count": 355161,
      "max": [
        65531
      ],
      "min": [
        0
      ],
      "type": "SCALAR"
    },
    {
      "bufferView": 1,
      "byteOffset": 1572768,
      "componentType": 5126,
      "count": 65532,
      "max": [
        42.244239807128906,
        2.9158730506896973,
        58.184158325195312
      ],
      "min": [
        -87.321563720703125,
        -44.514881134033203,
        -76.411834716796875
      ],
      "type": "VEC3"
    },
    {
      "bufferView": 1,
      "byteOffset": 2359152,
      "componentType": 5126,
      "count": 65532,
      "max": [
        0.9987560510635376,
        0.99997252225875854,
        0.99971401691436768
      ],
      "min": [
        -0.99999386072158813,
        -0.9999961256980896,
        -0.8651576042175293
      ],
      "type": "VEC3"
    },
    {
      "bufferView": 0,
      "byteOffset": 1420644,
      "componentType": 5125,
      "count": 332775,
      "max": [
        65531
      ],
      "min": [
        0
      ],
      "type": "SCALAR"
    },
    {
      "bufferView": 1,
      "byteOffset": 3145536,
      "componentType": 5126,
      "count": 65532,
      "max": [
        37.746997833251953,
        -6.2911062240600586,
        99.592727661132812
      ],
      "min": [
        -58.219776153564453,
        -44.488712310791016,
        -69.802375793457031
      ],
      "type": "VEC3"
    },
    {
      "bufferView": 1,
      "byteOffset": 3931920,
      "componentType": 5126,
      "count": 65532,
      "max": [
        0.9999922513961792,
        0.99999827146530151,
        0.88074201345443726
      ],
      "min": [
        -0.99999368190765381,
        -0.99999934434890747,
        -0.673683762550354
      ],
      "type": "VEC3"
    },
    {
      "bufferView": 0,
      "byteOffset": 2751744,
      "componentType": 5125,
      "count": 329646,
      "max": [
        65531
      ],
      "min": [
        0
      ],
      "type": "SCALAR"
    },
    {
      "bufferView": 1,
      "byteOffset": 4718304,
      "componentType": 5126,
      "count": 65532,
      "max": [
        45.100673675537109,
        1.8256670236587524,
        106.13888549804688
      ],
      "min": [
        -50.513236999511719,
        -43.134086608886719,
        -54.803127288818359
      ],
      "type": "VEC3"
    },
    {
      "bufferView": 1,
      "byteOffset": 5504688,
      "componentType": 5126,
      "count": 65532,
      "max": [
        0.99999254941940308,
        0.99999964237213135,
        0.99997991323471069
      ],
      "min": [
        -0.99998557567596436,
        -0.99999785423278809,
        -0.9978293776512146
      ],
      "type": "VEC3"
    },
    {
      "bufferView": 0,
      "byteOffset": 4070328,
      "componentType": 5125,
      "count": 335727,
      "max": [
        65531
      ],
      "min": [
        0
      ],
      "type": "SCALAR"
    },
    {
      "bufferView": 1,
      "byteOffset": 6291072,
      "componentType": 5126,
      "count": 65532,
      "max": [
        40.960250854492188,
        3.566943883895874,
        93.03204345703125
      ],
      "min": [
        -39.526805877685547,
        -44.303600311279297,
        -72.816452026367188
      ],
      "type": "VEC3"
    },
    {
      "bufferView": 1,
      "byteOffset": 7077456,
      "componentType": 5126,
      "count": 65532,
      "max": [
        0.99999982118606567,
        0.99998980760574341,
        0.99832361936569214
      ],
      "min": [
        -0.99999368190765381,
        -0.99998879432678223,
        -0.89137649536132812
      ],
      "type": "VEC3"
    },
    {
      "bufferView": 0,
      "byteOffset": 5413236,
      "componentType": 5125,
      "count": 329175,
      "max": [
        65531
      ],
      "min": [
        0
      ],
      "type": "SCALAR"
    },
    {
      "bufferView": 1,
      "byteOffset": 7863840,
      "componentType": 5126,
      "count": 65532,
      "max": [
        62.171855926513672,
        1.9998129606246948,
        99.059425354003906
      ],
      "min": [
        -39.06829833984375,
        -44.522003173828125,
        -74.615501403808594
      ],
      "type": "VEC3"
    },
    {
      "bufferView": 1,
      "byteOffset": 8650224,
      "componentType": 5126,
      "count": 65532,
      "max": [
        0.99999326467514038,
        0.99999982118606567,
        0.99986642599105835
      ],
      "min": [
        -0.99998617172241211,
        -0.99996781349182129,
        -0.67277956008911133
      ],
      "type": "VEC3"
    },
    {
      "bufferView": 0,
      "byteOffset": 6729936,
      "componentType": 5125,
      "count": 322344,
      "max": [
        65531
      ],
      "min": [
        0
      ],
      "type": "SCALAR"
    },
    {
      "bufferView": 1,
      "byteOffset": 9436608,
      "componentType": 5126,
      "count": 65532,
      "max": [
        62.131031036376953,
        -0.69361001253128052,
        99.132537841796875
      ],
      "min": [
        -60.254783630371094,
        -44.496467590332031,
        -69.616363525390625
      ],
      "type": "VEC3"
    },
    {
      "bufferView": 1,
      "byteOffset": 10222992,
      "componentType": 5126,
      "count": 65532,
      "max": [
        0.99999648332595825,
        0.99999350309371948,
        0.99989902973175049
      ],
      "min": [
        -0.99997180700302124,
        -0.99999552965164185,
        -0.88808965682983398
      ],
      "type": "VEC3"
    },
    {
      "bufferView": 0,
      "byteOffset": 8019312,
      "componentType": 5125,
      "count": 300810,
      "max": [
        65531
      ],
      "min": [
        0
      ],
      "type": "SCALAR"
    },
    {
      "bufferView": 1,
      "byteOffset": 11009376,
      "componentType": 5126,
      "count": 22177,
      "max": [
        56.841243743896484,
        -7.6721739768981934,
        99.130012512207031
      ],
      "min": [
        -64.083938598632812,
        -39.398517608642578,
        -31.828037261962891
      ],
      "type": "VEC3"
    },
    {
      "bufferView": 1,
      "byteOffset": 11275500,
      "componentType": 5126,
      "count": 22177,
      "max": [
        0.99991416931152344,
        0.99995172023773193,
        0.99963933229446411
      ],
      "min": [
        -0.96622419357299805,
        -0.99987876415252686,
        -0.85118484497070312
      ],
      "type": "VEC3"
    },
    {
      "bufferView": 0,
      "byteOffset": 9222552,
      "componentType": 5125,
      "count": 94362,
      "max": [
        22176
      ],
      "min": [
        0
      ],
      "type": "SCALAR"
    }
  ],
  "asset": {
    "extras": {
      "author": "Artec 3D (https://sketchfab.com/artec3d)",
      "license": "CC-BY-4.0 (http://creativecommons.org/licenses/by/4.0/)",
      "source": "https://sketchfab.com/models/8c4b6d3a99d547ffbd6a76180ee1d1a8",
      "title": "Hand"
    },
    "generator": "Sketchfab-3.18.5",
    "version": "2.0"
  },
  "bufferViews": [
    {
      "buffer": 0,
      "byteLength": 9600000,
      "byteOffset": 0,
      "name": "floatBufferViews",
      "target": 34963
    },
    {
      "buffer": 0,
      "byteLength": 11541624,
      "byteOffset": 9600000,
      "byteStride": 12,
      "name": "floatBufferViews",
      "target": 34962
    }
  ],
  "buffers": [
    {
      "byteLength": 21141624,
      "uri": "scene.bin"
    }
  ],
  "materials": [
    {
      "doubleSided": true,
      "emissiveFactor": [
        0,
        0,
        0
      ],
      "name": "material_0",
      "pbrMetallicRoughness": {
        "baseColorFactor": [
          1,
          1,
          1,
          1
        ],
        "metallicFactor": 0,
        "roughnessFactor": 0.59999999999999998
      }
    }
  ],
  "meshes": [
    {
      "primitives": [
        {
          "attributes": {
            "NORMAL": 1,
            "POSITION": 0
          },
          "indices": 2,
          "material": 0,
          "mode": 4
        }
      ]
    },
    {
      "primitives": [
        {
          "attributes": {
            "NORMAL": 4,
            "POSITION": 3
          },
          "indices": 5,
          "material": 0,
          "mode": 4
        }
      ]
    },
    {
      "primitives": [
        {
          "attributes": {
            "NORMAL": 7,
            "POSITION": 6
          },
          "indices": 8,
          "material": 0,
          "mode": 4
        }
      ]
    },
    {
      "primitives": [
        {
          "attributes": {
            "NORMAL": 10,
            "POSITION": 9
          },
          "indices": 11,
          "material": 0,
          "mode": 4
        }
      ]
    },
    {
      "primitives": [
        {
          "attributes": {
            "NORMAL": 13,
            "POSITION": 12
          },
          "indices": 14,
          "material": 0,
          "mode": 4
        }
      ]
    },
    {
      "primitives": [
        {
          "attributes": {
            "NORMAL": 16,
            "POSITION": 15
          },
          "indices": 17,
          "material": 0,
          "mode": 4
        }
      ]
    },
    {
      "primitives": [
        {
          "attributes": {
            "NORMAL": 19,
            "POSITION": 18
          },
          "indices": 20,
          "material": 0,
          "mode": 4
        }
      ]
    },
    {
      "primitives": [
        {
          "attributes": {
            "NORMAL": 22,
            "POSITION": 21
          },
          "indices": 23,
          "material": 0,
          "mode": 4
        }
      ]
    }
  ],
  "nodes": [
    {
      "children": [
        1
      ],
      "name": "RootNode (gltf orientation matrix)",
      "rotation": [
        -0.70710678118654746,
        -0,
        -0,
        0.70710678118654757
      ]
    },
    {
      "children": [
        2
      ],
      "matrix": [
        0.99768275022506714,
        0,
        0.068037718534469604,
        0,
        0,
        1,
        0,
        0,
        -0.068037718534469604,
        0,
        0.99768275022506714,
        0,
        0.95170670747756958,
        0,
        1.192331075668335,
        1
      ],
      "name": "RootNode (model correction matrix)"
    },
    {
      "children": [
        3,
        4,
        5,
        6,
        7,
        8,
        9,
        10
      ],
      "name": "Hand.obj.cleaner.materialmerger.gles"
    },
    {
      "mesh": 0,
      "name": ""
    },
    {
      "mesh": 1,
      "name": ""
    },
    {
      "mesh": 2,
      "name": ""
    },
    {
      "mesh": 3,
      "name": ""
    },
    {
      "mesh": 4,
      "name": ""
    },
    {
      "mesh": 5,
      "name": ""
    },
    {
      "mesh": 6,
      "name": ""
    },
    {
      "mesh": 7,
      "name": ""
    }
  ],
  "scene": 0,
  "scenes": [
    {
      "name": "OSG_Scene",
      "nodes": [
        0
      ]
    }
  ]
}

